<svg width="122" height="23" viewBox="0 0 122 23" fill="none" xmlns="http://www.w3.org/2000/svg">
<path d="M0.474197 22H8.4374C9.8234 22 11.0246 21.7648 12.041 21.2944C13.0658 20.8156 13.8554 20.1352 14.4098 19.2532C14.9726 18.3628 15.254 17.3002 15.254 16.0654C15.254 14.6458 14.876 13.4992 14.12 12.6256C13.364 11.752 12.272 11.1976 10.844 10.9624C12.5576 10.0468 13.4144 8.5348 13.4144 6.4264C13.4144 4.6792 12.8432 3.373 11.7008 2.5078C10.5668 1.6426 9.0044 1.21 7.0136 1.21H0.474197V22ZM5.3378 9.2866V4.9522H5.8418C7.757 4.9522 8.7146 5.662 8.7146 7.0816C8.7146 8.5516 7.757 9.2866 5.8418 9.2866H5.3378ZM5.3378 18.2452V13.4698H6.7238C7.841 13.4698 8.6894 13.6798 9.269 14.0998C9.8486 14.5198 10.1384 15.1246 10.1384 15.9142C10.1384 17.4682 9.0002 18.2452 6.7238 18.2452H5.3378Z" fill="white"/>
<path d="M17.925 22H22.524V0.328003H17.925V22Z" fill="white"/>
<path d="M32.1148 22.4032C33.6856 22.4032 35.0842 21.8236 36.3106 20.6644V22H40.9096V9.0976H36.3106V10.282C35.7982 9.7864 35.1766 9.4 34.4458 9.1228C33.715 8.8372 32.938 8.6944 32.1148 8.6944C30.8716 8.6944 29.767 8.9968 28.801 9.6016C27.8434 10.198 27.0916 11.0128 26.5456 12.046C25.9996 13.0792 25.7266 14.2384 25.7266 15.5236C25.7266 16.8508 26.0122 18.0352 26.5834 19.0768C27.1546 20.11 27.9232 20.9248 28.8892 21.5212C29.8552 22.1092 30.9304 22.4032 32.1148 22.4032ZM33.5008 18.5098C32.6608 18.5098 31.9636 18.2326 31.4092 17.6782C30.8548 17.1154 30.5776 16.4056 30.5776 15.5488C30.5776 14.7004 30.8548 13.9948 31.4092 13.432C31.9636 12.8692 32.6608 12.5878 33.5008 12.5878C34.3492 12.5878 35.0422 12.8692 35.5798 13.432C36.1258 13.9864 36.3988 14.692 36.3988 15.5488C36.3988 16.4056 36.1258 17.1154 35.5798 17.6782C35.0422 18.2326 34.3492 18.5098 33.5008 18.5098Z" fill="white"/>
<path d="M51.2036 22.4032C52.0436 22.4032 52.8374 22.2856 53.585 22.0504C54.3326 21.8152 54.9374 21.5296 55.3994 21.1936L53.8748 18.094C53.6564 18.2536 53.375 18.388 53.0306 18.4972C52.6946 18.598 52.3292 18.6484 51.9344 18.6484C50.9684 18.6484 50.1956 18.346 49.616 17.7412C49.0448 17.128 48.7592 16.3972 48.7592 15.5488C48.7592 15.0616 48.8726 14.5828 49.0994 14.1124C49.3346 13.6336 49.6874 13.2388 50.1578 12.928C50.6282 12.6088 51.212 12.4492 51.9092 12.4492C52.7072 12.4492 53.3624 12.634 53.8748 13.0036L55.3994 9.904C54.9542 9.5596 54.3452 9.274 53.5724 9.0472C52.808 8.812 52.01 8.6944 51.1784 8.6944C50.1368 8.6944 49.175 8.8834 48.293 9.2614C47.411 9.631 46.6424 10.1392 45.9872 10.786C45.332 11.4328 44.8196 12.1678 44.45 12.991C44.0888 13.8142 43.9082 14.671 43.9082 15.5614C43.9082 16.5022 44.1014 17.3884 44.4878 18.22C44.8742 19.0432 45.4034 19.7698 46.0754 20.3998C46.7474 21.0298 47.5244 21.5212 48.4064 21.874C49.2884 22.2268 50.2208 22.4032 51.2036 22.4032Z" fill="white"/>
<path d="M58.1859 22H62.7849V17.2624L67.7493 22H73.6461L66.9051 15.5236L73.3689 9.0976H67.4217L62.7849 13.6084V0.328003H58.1859V22Z" fill="white"/>
<path d="M75.5517 22H82.0785C84.1197 22 85.7241 21.5044 86.8917 20.5132C88.0677 19.5136 88.6557 18.1276 88.6557 16.3552C88.6557 14.8852 88.2441 13.7008 87.4209 12.802C86.6061 11.8948 85.4385 11.332 83.9181 11.1136C85.8501 10.2568 86.8161 8.7028 86.8161 6.4516C86.8161 4.7464 86.2533 3.4486 85.1277 2.5582C84.0021 1.6594 82.4313 1.21 80.4153 1.21H75.5517V22ZM78.1095 10.282V3.226H79.8987C81.3435 3.226 82.4481 3.5284 83.2125 4.1332C83.9769 4.7296 84.3591 5.599 84.3591 6.7414C84.3591 7.8838 83.9727 8.7616 83.1999 9.3748C82.4355 9.9796 81.3351 10.282 79.8987 10.282H78.1095ZM78.1095 19.9588V12.5122H81.3099C82.8051 12.5122 83.9601 12.844 84.7749 13.5076C85.5981 14.1628 86.0097 15.0868 86.0097 16.2796C86.0097 17.464 85.6065 18.3754 84.8001 19.0138C83.9937 19.6438 82.8303 19.9588 81.3099 19.9588H78.1095Z" fill="white"/>
<path d="M98.5302 22.4032C99.8994 22.4032 101.13 22.1134 102.222 21.5338C103.322 20.9542 104.192 20.1478 104.83 19.1146C105.477 18.0814 105.8 16.8928 105.8 15.5488C105.8 14.1964 105.477 13.0078 104.83 11.983C104.192 10.9498 103.322 10.1434 102.222 9.5638C101.13 8.9842 99.8994 8.6944 98.5302 8.6944C97.161 8.6944 95.9262 8.9842 94.8258 9.5638C93.7338 10.1434 92.8644 10.9498 92.2176 11.983C91.5792 13.0078 91.2599 14.1964 91.2599 15.5488C91.2599 16.8928 91.5792 18.0814 92.2176 19.1146C92.8644 20.1478 93.7338 20.9542 94.8258 21.5338C95.9262 22.1134 97.161 22.4032 98.5302 22.4032ZM98.5302 20.2738C97.6314 20.2738 96.8249 20.0722 96.1109 19.669C95.3969 19.2658 94.8341 18.7072 94.4225 17.9932C94.0109 17.2792 93.8052 16.4644 93.8052 15.5488C93.8052 14.6248 94.0109 13.81 94.4225 13.1044C94.8341 12.3904 95.3969 11.8318 96.1109 11.4286C96.8249 11.0254 97.6314 10.8238 98.5302 10.8238C99.4374 10.8238 100.248 11.0254 100.962 11.4286C101.676 11.8318 102.239 12.3904 102.65 13.1044C103.062 13.81 103.268 14.6248 103.268 15.5488C103.268 16.4644 103.062 17.2792 102.65 17.9932C102.239 18.7072 101.676 19.2658 100.962 19.669C100.248 20.0722 99.4374 20.2738 98.5302 20.2738Z" fill="white"/>
<path d="M107.872 22H110.782L114.877 16.9348L118.96 22H121.87L116.402 15.322L121.127 9.0976H118.304L114.877 13.621L111.437 9.0976H108.615L113.34 15.322L107.872 22Z" fill="white"/>
</svg>
