<svg xmlns="http://www.w3.org/2000/svg" viewBox="0 0 628.58 93.97"><defs><style>.cls-1{fill:#fff;}</style></defs><g id="Layer_2" data-name="Layer 2"><g id="Layer_1-2" data-name="Layer 1"><path class="cls-1" d="M115.71,60.89V63.6L97.92,64.78,95,65l-2.94.2L21,69.79V7.06L55.82,4.79a56.23,56.23,0,0,1,59.89,56.1Z"/><path class="cls-1" d="M99.56,83.15v2.71L0,92V24.49l12.67-.83v5.81l-6.88.44V85.85l87.9-5.41a51.13,51.13,0,0,0-.85-7l2.9-.19L98.66,73A56.51,56.51,0,0,1,99.56,83.15Z"/><path class="cls-1" d="M141.23,0h11V42.83h.24a20.05,20.05,0,0,1,8.44-7.16A26.83,26.83,0,0,1,172.68,33a30.71,30.71,0,0,1,12.17,2.32,27.35,27.35,0,0,1,9.3,6.42,28.65,28.65,0,0,1,5.94,9.67,34.31,34.31,0,0,1,2.08,12,33.78,33.78,0,0,1-2.08,12,29.35,29.35,0,0,1-5.94,9.67,26.82,26.82,0,0,1-9.3,6.48A30.71,30.71,0,0,1,172.68,94a27,27,0,0,1-11.44-2.57,21,21,0,0,1-8.75-7.22h-.24V92.5h-11Zm30.1,83.69a19.93,19.93,0,0,0,8-1.53,17.5,17.5,0,0,0,6-4.16,18.19,18.19,0,0,0,3.79-6.36,25.19,25.19,0,0,0,0-16.27A18.32,18.32,0,0,0,185.28,49a17.63,17.63,0,0,0-6-4.16,21.45,21.45,0,0,0-15.91,0,17.68,17.68,0,0,0-6,4.16,18.48,18.48,0,0,0-3.79,6.37,25.36,25.36,0,0,0,0,16.27A18.34,18.34,0,0,0,157.38,78a17.54,17.54,0,0,0,6,4.16A19.88,19.88,0,0,0,171.33,83.69Z"/><path class="cls-1" d="M216.85,0h11V92.5h-11Z"/><path class="cls-1" d="M245.6,41.6a30.76,30.76,0,0,1,10.77-6.42A36.74,36.74,0,0,1,268.6,33a33.63,33.63,0,0,1,11,1.59,21.43,21.43,0,0,1,7.52,4.28,16.78,16.78,0,0,1,4.34,6.18,19.22,19.22,0,0,1,1.41,7.28V82c0,2,0,3.91.12,5.63s.21,3.34.37,4.89h-9.79q-.36-4.4-.36-8.81h-.25a21,21,0,0,1-8.69,8A27.36,27.36,0,0,1,262.61,94a26.86,26.86,0,0,1-7.71-1.1,19,19,0,0,1-6.42-3.3,15.78,15.78,0,0,1-4.35-5.45,16.88,16.88,0,0,1-1.59-7.52,16.75,16.75,0,0,1,2.51-9.43A19.07,19.07,0,0,1,251.9,61a32.76,32.76,0,0,1,10.16-3.43,70.75,70.75,0,0,1,12.42-1h8.07V54.08a12.06,12.06,0,0,0-.85-4.4,11.88,11.88,0,0,0-2.57-4,12.26,12.26,0,0,0-4.29-2.81,16.11,16.11,0,0,0-6.11-1,22.43,22.43,0,0,0-5.57.61A24.79,24.79,0,0,0,258.82,44a18.59,18.59,0,0,0-3.55,2.14c-1.06.82-2.08,1.59-3.06,2.32Zm31.08,23a78.56,78.56,0,0,0-8,.43,31.76,31.76,0,0,0-7.47,1.65,14.37,14.37,0,0,0-5.5,3.43,7.75,7.75,0,0,0-2.15,5.63c0,3.34,1.13,5.75,3.37,7.22s5.28,2.2,9.11,2.2a17.67,17.67,0,0,0,7.71-1.53,14.37,14.37,0,0,0,5.14-4,15.28,15.28,0,0,0,2.82-5.44,21.59,21.59,0,0,0,.85-5.94V64.6Z"/><path class="cls-1" d="M350.34,49.92a23.14,23.14,0,0,0-6.42-4.83,18.08,18.08,0,0,0-8-1.65A17.71,17.71,0,0,0,328,45.09a16,16,0,0,0-5.63,4.53,20.42,20.42,0,0,0-3.43,6.6A26.15,26.15,0,0,0,317.79,64a21.65,21.65,0,0,0,1.35,7.65,19.07,19.07,0,0,0,3.79,6.3,17.39,17.39,0,0,0,5.87,4.22,18.75,18.75,0,0,0,7.71,1.53,17.69,17.69,0,0,0,8-1.65,20.29,20.29,0,0,0,6.11-4.83L358.41,85a24.6,24.6,0,0,1-10,6.85A34.73,34.73,0,0,1,336.39,94a33.11,33.11,0,0,1-12.3-2.2,28.42,28.42,0,0,1-9.6-6.18A27.3,27.3,0,0,1,308.25,76a33.1,33.1,0,0,1-2.2-12.29,33.59,33.59,0,0,1,2.2-12.36,28.43,28.43,0,0,1,6.18-9.67,28.06,28.06,0,0,1,9.54-6.3,32.67,32.67,0,0,1,12.42-2.26,33.19,33.19,0,0,1,12.17,2.26,26.82,26.82,0,0,1,10.1,6.92Z"/><path class="cls-1" d="M367.84,0h11V59.71l25-25.08H419.1l-27,26.3L421.43,92.5H405.77L378.85,62.4V92.5h-11Z"/><path class="cls-1" d="M431.22,0h7.34V45.88h.24a19,19,0,0,1,4.28-5.07,25.9,25.9,0,0,1,5.57-3.55,27.89,27.89,0,0,1,6.3-2.08,32.44,32.44,0,0,1,6.49-.67,31.5,31.5,0,0,1,11.93,2.2A27.7,27.7,0,0,1,489,52.31a31.47,31.47,0,0,1,2.2,11.93A31.5,31.5,0,0,1,489,76.17a27.7,27.7,0,0,1-15.6,15.6A31.5,31.5,0,0,1,461.44,94,33.19,33.19,0,0,1,455,93.3a27.89,27.89,0,0,1-6.3-2.08,25.9,25.9,0,0,1-5.57-3.55,19.07,19.07,0,0,1-4.28-5.08h-.24V92.5h-7.34Zm6.6,64.24a22.18,22.18,0,0,0,1.84,9,22.88,22.88,0,0,0,5,7.34,24.14,24.14,0,0,0,7.46,5,23.38,23.38,0,0,0,9.3,1.83,22.9,22.9,0,0,0,9.3-1.83,21.61,21.61,0,0,0,7.09-5,21,21,0,0,0,4.47-7.34,27.21,27.21,0,0,0,0-18,21,21,0,0,0-4.47-7.34A21.43,21.43,0,0,0,470.74,43a22.74,22.74,0,0,0-9.3-1.84,23.22,23.22,0,0,0-9.3,1.84,23.94,23.94,0,0,0-7.46,4.95,22.88,22.88,0,0,0-5,7.34A22.26,22.26,0,0,0,437.82,64.24Z"/><path class="cls-1" d="M504.38,64.24a31.47,31.47,0,0,1,2.21-11.93,28.35,28.35,0,0,1,6.12-9.42,27.18,27.18,0,0,1,9.42-6.18,31.93,31.93,0,0,1,12-2.2,31.5,31.5,0,0,1,11.93,2.2,27.7,27.7,0,0,1,15.6,15.6,31.47,31.47,0,0,1,2.2,11.93,31.5,31.5,0,0,1-2.2,11.93,27.7,27.7,0,0,1-15.6,15.6A31.5,31.5,0,0,1,534.12,94a31.93,31.93,0,0,1-12-2.2,27.18,27.18,0,0,1-9.42-6.18,28.35,28.35,0,0,1-6.12-9.42A31.51,31.51,0,0,1,504.38,64.24Zm7.35,0a26.16,26.16,0,0,0,1.53,9,21.16,21.16,0,0,0,4.46,7.34,21.76,21.76,0,0,0,7.1,5,24.55,24.55,0,0,0,18.6,0,21.61,21.61,0,0,0,7.09-5A21,21,0,0,0,555,73.23a27.21,27.21,0,0,0,0-18,21,21,0,0,0-4.47-7.34A21.43,21.43,0,0,0,543.42,43a24.42,24.42,0,0,0-18.6,0,21.58,21.58,0,0,0-7.1,4.95,21.16,21.16,0,0,0-4.46,7.34A26.26,26.26,0,0,0,511.73,64.24Z"/><path class="cls-1" d="M594.68,61.91,574.5,36h9.42l15.66,21.42L615.12,36h9.17L604.35,61.91,628.58,92.5H619l-19.7-25.57L580,92.5h-8.81Z"/></g></g></svg>