<svg width="36" height="36" viewBox="0 0 36 36" fill="none" xmlns="http://www.w3.org/2000/svg">
<path d="M18 0C10.5053 0 4.42966 6.07563 4.42966 13.5703C4.42966 16.0767 4.92025 18.6654 6.32809 20.5312L18 36L29.6718 20.5312C30.9506 18.8365 31.5703 15.8406 31.5703 13.5703C31.5703 6.07563 25.4946 0 18 0ZM18 7.85961C21.1535 7.85961 23.7107 10.4168 23.7107 13.5703C23.7107 16.7238 21.1535 19.281 18 19.281C14.8465 19.281 12.2893 16.7238 12.2893 13.5703C12.2893 10.4168 14.8465 7.85961 18 7.85961Z" fill="#EC4E2B"/>
<circle cx="18" cy="13" r="5.5" fill="#EC4E2B" stroke="#0D0221" stroke-width="3"/>
</svg>
