<?xml version="1.0" standalone="no"?>
<!DOCTYPE svg PUBLIC "-//W3C//DTD SVG 20010904//EN"
 "http://www.w3.org/TR/2001/REC-SVG-20010904/DTD/svg10.dtd">
<svg version="1.0" xmlns="http://www.w3.org/2000/svg"
 width="700.000000pt" height="700.000000pt" viewBox="0 0 700.000000 700.000000"
 preserveAspectRatio="xMidYMid meet">
<metadata>
Created by potrace 1.14, written by Peter Selinger 2001-2017
</metadata>
<g transform="translate(0.000000,700.000000) scale(0.100000,-0.100000)"
fill="#000000" stroke="none">
<path d="M3557 5864 c-1 -1 -69 -4 -152 -8 -82 -4 -168 -9 -190 -11 -22 -1
-87 -6 -145 -9 -58 -3 -130 -8 -160 -11 -30 -2 -100 -7 -155 -10 -96 -6 -179
-11 -310 -20 -33 -2 -103 -6 -155 -10 -52 -3 -122 -8 -155 -10 -33 -2 -100 -7
-150 -10 -49 -3 -117 -7 -150 -10 -33 -2 -109 -7 -170 -10 -60 -4 -111 -8
-113 -10 -3 -3 -5 -3164 -3 -3293 1 -18 4 -31 9 -29 4 3 61 8 127 12 66 4 136
9 155 10 19 1 89 5 155 9 66 4 136 9 155 11 19 2 80 6 135 9 55 4 129 8 165
11 86 6 206 14 310 20 47 3 112 7 145 10 33 3 105 8 160 11 55 3 125 7 155 9
30 2 98 6 150 10 154 10 231 15 300 19 113 8 233 16 310 21 184 12 249 16 300
20 30 2 98 7 150 10 52 3 124 8 160 10 36 2 108 7 160 10 52 3 120 7 150 10
30 3 98 7 150 10 176 11 245 15 310 20 82 6 176 12 310 20 58 3 130 8 160 10
58 5 156 11 305 20 50 3 115 7 145 10 30 2 102 7 160 10 58 4 109 11 114 16
10 9 11 210 2 329 -11 154 -33 304 -62 440 -8 36 -17 75 -20 88 -20 96 -115
372 -166 482 -45 100 -128 260 -168 326 -36 59 -154 234 -181 268 -82 105
-185 222 -270 306 -123 123 -132 131 -270 239 -127 100 -113 89 -179 132 -211
138 -412 241 -620 316 -129 47 -306 100 -360 108 -25 4 -48 9 -52 11 -9 6 -36
11 -93 19 -22 3 -47 8 -55 10 -8 2 -39 7 -69 10 -30 4 -63 9 -75 11 -27 5
-354 21 -359 18z"/>
<path d="M1006 4853 c-1 -1 -47 -5 -101 -8 -55 -3 -120 -8 -145 -10 -56 -5
-267 -18 -297 -19 -13 0 -23 -5 -24 -10 -1 -14 -1 -3526 0 -3549 1 -16 10 -17
114 -12 61 3 132 8 157 10 51 4 252 17 320 20 156 8 300 17 330 20 19 2 89 7
155 11 66 3 140 8 165 9 25 2 95 6 155 10 61 3 137 8 170 10 33 2 105 6 160
10 55 3 123 8 150 10 28 2 104 7 170 10 66 4 136 8 155 10 19 2 91 6 160 10
69 4 145 9 170 10 25 2 97 6 160 10 63 4 133 8 155 10 22 2 94 6 160 10 66 4
143 9 170 11 28 1 95 6 150 9 55 3 127 7 160 10 33 2 107 7 165 11 58 3 132 7
165 9 33 3 103 7 155 10 52 3 124 7 160 10 36 2 108 7 160 10 52 3 129 8 170
11 41 2 109 7 150 9 41 2 113 7 160 10 106 7 194 13 335 20 61 3 119 8 130 10
11 2 23 4 28 4 7 1 1 364 -7 411 -3 14 -7 52 -10 85 -3 33 -8 69 -10 80 -2 11
-7 39 -11 63 -4 23 -10 40 -14 38 -3 -2 -60 -8 -126 -12 -170 -10 -170 -10
-169 -20 1 -5 5 -31 9 -59 4 -27 8 -61 10 -75 2 -14 7 -56 10 -95 4 -38 8 -85
10 -102 3 -33 2 -33 -44 -35 -25 0 -57 -2 -71 -4 -14 -1 -77 -5 -140 -8 -63
-3 -140 -8 -170 -11 -30 -2 -102 -7 -160 -10 -58 -4 -132 -8 -165 -10 -33 -2
-107 -6 -165 -10 -58 -3 -127 -8 -155 -10 -27 -2 -102 -7 -165 -10 -63 -3
-137 -7 -165 -10 -27 -2 -104 -7 -170 -10 -66 -4 -133 -8 -150 -10 -16 -2 -84
-6 -150 -10 -66 -4 -149 -8 -185 -11 -36 -2 -103 -6 -150 -9 -159 -10 -255
-16 -320 -20 -36 -2 -110 -7 -165 -10 -55 -3 -125 -8 -155 -10 -30 -2 -104 -7
-165 -10 -60 -3 -130 -7 -155 -10 -25 -2 -101 -7 -170 -10 -69 -4 -145 -8
-170 -10 -25 -1 -99 -6 -165 -9 -66 -4 -142 -9 -170 -11 -27 -2 -95 -7 -150
-10 -140 -8 -259 -15 -330 -20 -47 -3 -269 -16 -295 -17 -37 -1 -35 -65 -35
1480 0 1002 3 1479 10 1479 16 0 248 16 275 18 14 1 37 3 53 4 l28 1 -3 153
-3 152 -48 0 c-27 0 -50 -1 -51 -2z"/>
</g>
</svg>
